<?xml version="1.0" ?><!DOCTYPE svg  PUBLIC '-//W3C//DTD SVG 1.1//EN'  'http://www.w3.org/Graphics/SVG/1.1/DTD/svg11.dtd'><svg enable-background="new 0 0 128 128" id="Слой_1" version="1.1" viewBox="0 0 128 128" xml:space="preserve" xmlns="http://www.w3.org/2000/svg" xmlns:xlink="http://www.w3.org/1999/xlink"><g/><g><polygon fill="#FFFFFF" points="111,126 17,126 17,105.2 21,105.2 21,122 107,122 107,60 111,60  "/></g><g><path d="M98,101H69V72h29V101z M73,97h21V76H73V97z" fill="#FFFFFF"/></g><g><polygon fill="#FFFFFF" points="119,71.8 64,16.8 33.4,47.4 30.6,44.6 64,11.2 119,66.2 121.2,64 107,49.8 107,16 96,16 96,38.8    64,6.8 6.8,64 9,66.2 18.6,56.6 21.4,59.4 9,71.8 1.2,64 64,1.2 92,29.2 92,12 111,12 111,48.2 126.8,64  "/></g><g><g><path d="M44.5,108.5H26.3c-13.2,0-23.8-10.7-23.8-23.8c0-9.7,5.9-18.4,14.8-22.1C17.4,52.3,25.8,44,36.1,44    c10.4,0,18.8,8.4,18.8,18.8c0,2.3-0.4,4.7-1.3,6.9C60.5,73.1,65,80.2,65,88C65,99.3,55.8,108.5,44.5,108.5z M36.1,48    c-8.2,0-14.8,6.6-14.8,14.8c0,0.3,0,0.7,0,1l0.1,1.5L20,65.9C11.9,68.6,6.5,76.1,6.5,84.7c0,10.9,8.9,19.8,19.8,19.8h18.2    c9.1,0,16.5-7.4,16.5-16.5c0-6.9-4.3-13.1-10.7-15.5l-2.1-0.8l1.1-2c1.1-2.1,1.7-4.5,1.7-6.9C50.9,54.6,44.3,48,36.1,48z" fill="#FFFFFF"/></g><g><path d="M44.5,108.5H26.3c-13.2,0-23.8-10.7-23.8-23.8c0-9.7,5.9-18.4,14.8-22.1C17.4,52.3,25.8,44,36.1,44    c10.4,0,18.8,8.4,18.8,18.8c0,2.3-0.4,4.7-1.3,6.9C60.5,73.1,65,80.2,65,88C65,99.3,55.8,108.5,44.5,108.5z M36.1,48    c-8.2,0-14.8,6.6-14.8,14.8c0,0.3,0,0.7,0,1l0.1,1.5L20,65.9C11.9,68.6,6.5,76.1,6.5,84.7c0,10.9,8.9,19.8,19.8,19.8h18.2    c9.1,0,16.5-7.4,16.5-16.5c0-6.9-4.3-13.1-10.7-15.5l-2.1-0.8l1.1-2c1.1-2.1,1.7-4.5,1.7-6.9C50.9,54.6,44.3,48,36.1,48z" fill="#FFFFFF"/></g><g><rect fill="#FFFFFF" height="56.5" width="4" x="31.7" y="69.5"/></g><g><rect fill="#FFFFFF" height="15" transform="matrix(0.4472 0.8944 -0.8944 0.4472 107.2056 16.2394)" width="4" x="38.5" y="87.3"/></g><g><rect fill="#FFFFFF" height="4" transform="matrix(0.8944 0.4472 -0.4472 0.8944 39.2553 -3.4893)" width="15" x="19.5" y="79.4"/></g></g></svg>